<?xml version="1.0" standalone="no"?><!DOCTYPE svg PUBLIC "-//W3C//DTD SVG 1.1//EN" "http://www.w3.org/Graphics/SVG/1.1/DTD/svg11.dtd"><svg t="1599632187946" class="icon" viewBox="0 0 1024 1024" version="1.1" xmlns="http://www.w3.org/2000/svg" p-id="5773" xmlns:xlink="http://www.w3.org/1999/xlink" width="128" height="128"><defs><style type="text/css"></style></defs><path d="M366.912 238.912c0-18.816 13.248-34.112 29.44-34.112h484.416c16.256 0 29.44 15.296 29.44 34.112 0 18.88-13.184 34.176-29.44 34.176H396.416c-16.256 0-29.44-15.36-29.44-34.176z m513.856 244.352c16.256 0 29.44 15.296 29.44 34.112 0 18.88-13.184 34.176-29.44 34.176H396.416c-16.256 0-29.44-15.296-29.44-34.176 0-18.816 13.184-34.112 29.44-34.112h484.352z m0 256.32c16.256 0 29.44 15.232 29.44 34.112 0 18.816-13.184 34.112-29.44 34.112H396.416c-16.256 0-29.44-15.296-29.44-34.112 0-18.88 13.184-34.112 29.44-34.112h484.352zM154.368 148.288c6.912 0 13.696-0.576 20.288-1.728a63.36 63.36 0 0 0 17.92-5.76 45.824 45.824 0 0 0 13.632-10.56 32 32 0 0 0 7.424-15.68h27.008v203.648h-36.352V174.528h-49.92v-26.24z m134.784 460.416h-138.88c0.192-16.896 4.224-31.616 12.16-44.224 7.936-12.608 18.816-23.616 32.576-32.896a367.36 367.36 0 0 1 20.608-14.08c7.168-4.608 13.76-9.472 19.84-14.72 5.952-5.248 10.88-10.88 14.72-17.024a40.448 40.448 0 0 0 6.144-21.12 57.664 57.664 0 0 0-1.28-11.776 30.08 30.08 0 0 0-15.552-20.672 36.48 36.48 0 0 0-17.472-3.584 31.424 31.424 0 0 0-16.384 3.84 29.44 29.44 0 0 0-10.496 10.88 53.76 53.76 0 0 0-5.76 16.064c-1.28 6.208-2.048 12.928-2.24 20.096h-33.088c0-11.264 1.472-21.696 4.48-31.296 3.008-9.6 7.488-17.92 13.504-24.832a63.744 63.744 0 0 1 21.952-16.448c8.64-3.968 18.624-5.952 30.08-5.952 12.416 0 22.784 1.984 31.104 6.08s15.04 9.216 20.224 15.424c5.12 6.208 8.768 12.928 10.88 20.224 2.112 7.296 3.2 14.208 3.2 20.8 0 8.128-1.28 15.552-3.84 22.144a71.36 71.36 0 0 1-10.112 18.176 103.04 103.04 0 0 1-14.528 15.232c-5.44 4.672-11.072 9.024-16.896 13.12a450.56 450.56 0 0 1-17.408 11.648 260.48 260.48 0 0 0-16.128 11.072 94.912 94.912 0 0 0-12.928 11.52 32.64 32.64 0 0 0-7.552 12.608h99.072v29.696z m-83.968 177.664c5.44 0.192 10.88-0.192 16.256-1.152a45.184 45.184 0 0 0 14.528-5.12 28.48 28.48 0 0 0 10.304-10.048 29.504 29.504 0 0 0 3.968-15.68 26.624 26.624 0 0 0-8.896-20.928 33.088 33.088 0 0 0-22.784-7.872c-5.824 0-10.88 1.152-15.104 3.456a31.04 31.04 0 0 0-10.624 9.472 42.368 42.368 0 0 0-6.272 13.44 50.304 50.304 0 0 0-1.728 15.232H151.68c0.384-9.92 2.24-19.072 5.568-27.52a69.12 69.12 0 0 1 13.44-21.952 60.032 60.032 0 0 1 20.8-14.528c8.192-3.52 17.344-5.248 27.648-5.248 7.936 0 15.744 1.152 23.36 3.456 7.68 2.368 14.528 5.76 20.672 10.24a49.6 49.6 0 0 1 20.224 40.704c0 10.24-2.368 19.2-7.04 26.88a39.872 39.872 0 0 1-21.76 16.768v0.64a41.984 41.984 0 0 1 27.136 17.28 56.896 56.896 0 0 1 9.792 33.6 56.896 56.896 0 0 1-21.504 45.504 72.576 72.576 0 0 1-23.04 12.352c-8.64 2.944-17.92 4.416-27.52 4.416-11.84 0-22.208-1.728-30.976-5.12a59.392 59.392 0 0 1-35.648-36.8 91.328 91.328 0 0 1-4.928-29.12h33.152a46.08 46.08 0 0 0 9.152 30.976c6.464 8.32 16.192 12.416 29.184 12.416 11.072 0 20.288-3.2 27.776-9.472 7.488-6.336 11.2-15.296 11.2-26.88a33.728 33.728 0 0 0-4.672-18.944 30.08 30.08 0 0 0-12.16-10.624 49.408 49.408 0 0 0-17.024-4.48c-6.336-0.64-12.8-0.832-19.328-0.64v-24.704z" fill="#69696C" p-id="5774"></path></svg>